# xmcd CD database file
#
# Track frame offsets:
#	150
#	18507
#	38387
#	58180
#	74592
#	93762
#	110180
#	131120
#	151410
#
# Disc length: 2334 seconds
#
# Revision: 0
# Processed by: cddbd v1.5.1PL0 Copyright (c) Steve Scherf et al.
# Submitted via: CDex 1.50
#
DISCID=79091c09
DTITLE=Junior Mance - The soulful piano of Junior Mance
DYEAR=1960
DGENRE=Jazz
TTITLE0=The Uptown
TTITLE1=Ralph's New Blues
TTITLE2=Main Stem
TTITLE3=Daring, Je vous aime beaucoup
TTITLE4=Play House
TTITLE5=Sweet and Lovely
TTITLE6=Oo-Bla-Dee
TTITLE7=I don't care
TTITLE8=Swingmatism
EXTD=YEAR: 1960
EXTT0=
EXTT1=
EXTT2=
EXTT3=
EXTT4=
EXTT5=
EXTT6=
EXTT7=
EXTT8=
PLAYORDER=
